<svg xmlns="http://www.w3.org/2000/svg" width="80" height="75" viewBox="0 0 80 75">
    <path fill="#0C3C3D" fill-rule="evenodd" d="M21.443 71.423c-1.359 0-2.208-1.034-2.208-2.725 0-7.992 15.813-26.145 31.588-41.532-2.667 17.282-20.29 44.257-29.38 44.257M78.049.006c-2.171.052-6.624.221-10.53.277-1.375.02-1.924.64-1.748 1.528.208 1.047.896 1.823 1.931 1.85 1.334.036 3.12-.188 5.41-.3-5.206 4.016-11.504 9.295-18.002 15.169-.763-5.91-3.495-10.636-8.87-10.636-7.813 0-15.626 11.923-19.022 18.565-.34-5.45-2.718-10.56-7.813-10.56C8.812 15.9 0 40.073 0 43.69c0 1.237 1.41 2.186 2.26 2.186 1.019 0 1.35-.511 1.69-1.704 4.415-14.477 11.039-24.526 15.455-24.526 2.208 0 3.906 2.555 3.906 8.516 0 4.386-.745 7.05-.745 8.089 0 1.624 1.425 2.471 2.274 2.471 1.019 0 1.358-.51 1.868-1.703 5.095-12.604 13.417-25.207 19.362-25.207 2.927 0 4.918 3.75 5.083 10.347C33.33 38.74 15.374 58.721 15.374 68.551c0 4.09 2.25 6.449 5.9 6.449 13.102 0 33.609-32.657 34.055-52.157 7.292-6.88 14.245-12.889 19.248-16.711-.77 1.916-1.547 3.78-1.942 5.173-.289 1.018-.113 2.137 1.135 2.624.79.308 1.492-.138 1.802-1.023 1.88-5.38 2.849-7.587 3.999-10.665.752-2.013.672-2.288-1.522-2.235"/>
</svg>
